<?xml version="1.0" encoding="utf-8"?>
<!-- Generator: Adobe Illustrator 15.0.0, SVG Export Plug-In . SVG Version: 6.00 Build 0)  -->
<!DOCTYPE svg PUBLIC "-//W3C//DTD SVG 1.1//EN" "http://www.w3.org/Graphics/SVG/1.1/DTD/svg11.dtd">
<svg version="1.1" id="Layer_1" xmlns="http://www.w3.org/2000/svg" xmlns:xlink="http://www.w3.org/1999/xlink" x="0px" y="0px"
	 width="75px" height="75px" viewBox="0 0 75 75" enable-background="new 0 0 75 75" xml:space="preserve">
<path fill="#FFFFFF" d="M13.035,17.91c-0.428,0-0.837-0.242-1.032-0.655c-0.267-0.569-0.021-1.247,0.547-1.514L37.468,4.052
	c0.305-0.143,0.657-0.145,0.962-0.002l24.568,11.388c0.569,0.264,0.817,0.941,0.553,1.512c-0.264,0.57-0.941,0.818-1.512,0.554
	L37.955,6.338L13.518,17.802C13.362,17.875,13.197,17.91,13.035,17.91"/>
<path fill="#FFFFFF" d="M59.738,62.378h-5.107c-0.629,0-1.141-0.509-1.141-1.138s0.512-1.139,1.141-1.139H58.6V16.764
	c0-0.629,0.511-1.139,1.139-1.139c0.629,0,1.139,0.51,1.139,1.139V61.24C60.877,61.869,60.367,62.378,59.738,62.378"/>
<path fill="#FFFFFF" d="M21.273,62.378h-5.709c-0.629,0-1.139-0.509-1.139-1.138V16.764c0-0.629,0.51-1.139,1.139-1.139
	c0.628,0,1.138,0.51,1.138,1.139v43.337h4.571c0.628,0,1.138,0.51,1.138,1.139S21.901,62.378,21.273,62.378"/>
<path fill="#FFFFFF" d="M53.428,58.356c-0.629,0-1.139-0.51-1.139-1.138v-5.96H23.914v5.96c0,0.628-0.51,1.138-1.138,1.138
	c-0.629,0-1.138-0.51-1.138-1.138v-7.098c0-0.629,0.509-1.139,1.138-1.139h30.652c0.629,0,1.139,0.51,1.139,1.139v7.098
	C54.566,57.847,54.057,58.356,53.428,58.356"/>
<path fill="#FFFFFF" d="M65.749,67.486h-2.292c-0.628,0-1.138-0.51-1.138-1.139s0.51-1.138,1.138-1.138h1.153v-2.832H10.691v2.832
	h5.048c0.629,0,1.138,0.509,1.138,1.138s-0.509,1.139-1.138,1.139H9.553c-0.629,0-1.138-0.51-1.138-1.139V61.24
	c0-0.629,0.509-1.139,1.138-1.139h56.196c0.628,0,1.138,0.51,1.138,1.139v5.107C66.887,66.977,66.377,67.486,65.749,67.486"/>
<path fill="#FFFFFF" d="M52.104,67.486H51.96c-0.629,0-1.138-0.51-1.138-1.139s0.509-1.138,1.138-1.138h0.144
	c0.629,0,1.139,0.509,1.139,1.138S52.732,67.486,52.104,67.486"/>
<path fill="#FFFFFF" d="M48.847,67.486H38.83c-0.629,0-1.138-0.51-1.138-1.139s0.509-1.138,1.138-1.138h10.017
	c0.63,0,1.139,0.509,1.139,1.138S49.477,67.486,48.847,67.486"/>
<path fill="#FFFFFF" d="M73.862,72.596H1.139C0.51,72.596,0,72.086,0,71.457v-5.109c0-0.629,0.51-1.138,1.139-1.138h34.807
	c0.629,0,1.138,0.509,1.138,1.138s-0.509,1.139-1.138,1.139H2.277v2.832h70.446v-2.832H55.146c-0.628,0-1.138-0.51-1.138-1.139
	s0.51-1.138,1.138-1.138h18.716c0.628,0,1.138,0.509,1.138,1.138v5.109C75,72.086,74.49,72.596,73.862,72.596"/>
<path fill="#FFFFFF" d="M26.982,32.327h-4.808c-0.629,0-1.138-0.51-1.138-1.138v-7.514c0-0.628,0.509-1.138,1.138-1.138h4.808
	c0.629,0,1.139,0.509,1.139,1.138v7.514C28.122,31.817,27.611,32.327,26.982,32.327 M23.313,30.05h2.531v-5.236h-2.531V30.05z"/>
<path fill="#FFFFFF" d="M40.205,32.327h-4.808c-0.629,0-1.139-0.51-1.139-1.138v-7.514c0-0.628,0.51-1.138,1.139-1.138h4.808
	c0.629,0,1.139,0.509,1.139,1.138v7.514C41.344,31.817,40.834,32.327,40.205,32.327 M36.535,30.05h2.531v-5.236h-2.531V30.05z"/>
<path fill="#FFFFFF" d="M53.428,32.327h-4.809c-0.629,0-1.138-0.51-1.138-1.138v-7.514c0-0.628,0.509-1.138,1.138-1.138h4.809
	c0.628,0,1.139,0.509,1.139,1.138v7.514C54.566,31.817,54.056,32.327,53.428,32.327 M49.758,30.05h2.531v-5.236h-2.531V30.05z"/>
<path fill="#FFFFFF" d="M27.283,45.549h-4.808c-0.628,0-1.138-0.51-1.138-1.138v-7.513c0-0.629,0.51-1.138,1.138-1.138h4.808
	c0.628,0,1.138,0.509,1.138,1.138v7.513C28.421,45.039,27.912,45.549,27.283,45.549 M23.614,43.273h2.53v-5.236h-2.53V43.273z"/>
<path fill="#FFFFFF" d="M40.506,45.549h-4.809c-0.628,0-1.138-0.51-1.138-1.138v-7.513c0-0.629,0.51-1.138,1.138-1.138h4.809
	c0.629,0,1.139,0.509,1.139,1.138v7.513C41.645,45.039,41.135,45.549,40.506,45.549 M36.836,43.273h2.531v-5.236h-2.531V43.273z"/>
<path fill="#FFFFFF" d="M53.729,45.549H48.92c-0.629,0-1.138-0.51-1.138-1.138v-7.513c0-0.629,0.509-1.138,1.138-1.138h4.809
	c0.629,0,1.138,0.509,1.138,1.138v7.513C54.866,45.039,54.357,45.549,53.729,45.549 M50.059,43.273h2.531v-5.236h-2.531V43.273z"/>
<polygon fill="#FFFFFF" points="24.87,14.463 25.789,16.325 27.844,16.625 26.356,18.074 26.708,20.121 24.87,19.154 23.032,20.121 
	23.382,18.074 21.896,16.625 23.95,16.325 "/>
<polygon fill="#FFFFFF" points="37.924,14.463 38.844,16.325 40.898,16.625 39.411,18.074 39.762,20.121 37.924,19.154 
	36.087,20.121 36.438,18.074 34.95,16.625 37.005,16.325 "/>
<polygon fill="#FFFFFF" points="51.28,14.463 52.199,16.325 54.254,16.625 52.768,18.074 53.119,20.121 51.28,19.154 49.443,20.121 
	49.793,18.074 48.307,16.625 50.361,16.325 "/>
<polygon fill="#FFFFFF" points="44.629,14.463 45.547,16.325 47.603,16.625 46.115,18.074 46.467,20.121 44.629,19.154 
	42.791,20.121 43.141,18.074 41.654,16.625 43.709,16.325 "/>
<polygon fill="#FFFFFF" points="31.25,14.463 32.169,16.325 34.225,16.625 32.737,18.074 33.088,20.121 31.25,19.154 29.413,20.121 
	29.763,18.074 28.277,16.625 30.331,16.325 "/>
</svg>
