<?xml version="1.0" encoding="utf-8"?>
<!-- Generator: Adobe Illustrator 15.0.0, SVG Export Plug-In . SVG Version: 6.00 Build 0)  -->
<!DOCTYPE svg PUBLIC "-//W3C//DTD SVG 1.1//EN" "http://www.w3.org/Graphics/SVG/1.1/DTD/svg11.dtd">
<svg version="1.1" id="Layer_1" xmlns="http://www.w3.org/2000/svg" xmlns:xlink="http://www.w3.org/1999/xlink" x="0px" y="0px"
	 width="75px" height="75px" viewBox="0 0 75 75" enable-background="new 0 0 75 75" xml:space="preserve">
<rect x="0.521" y="-0.148" fill="#CCCCCC" width="74.479" height="75.052"/>
<g>
	<path fill="#FFFFFF" d="M9.065,39.229v-3.704h0.748v3.704H9.065z"/>
	<path fill="#FFFFFF" d="M10.515,39.229v-3.704h1.119l0.672,2.527l0.665-2.527h1.121v3.704h-0.695v-2.916l-0.735,2.916h-0.719
		l-0.734-2.916v2.916H10.515z"/>
	<path fill="#FFFFFF" d="M18.174,39.229H17.36l-0.323-0.842h-1.48l-0.306,0.842h-0.792l1.442-3.704h0.79L18.174,39.229z
		 M16.797,37.765l-0.511-1.375l-0.5,1.375H16.797z"/>
	<path fill="#FFFFFF" d="M20.293,37.868v-0.624h1.612v1.475c-0.157,0.151-0.384,0.285-0.681,0.4
		c-0.297,0.116-0.598,0.174-0.903,0.174c-0.388,0-0.725-0.081-1.013-0.244c-0.288-0.162-0.504-0.395-0.649-0.697
		c-0.145-0.302-0.216-0.631-0.216-0.986c0-0.386,0.08-0.729,0.242-1.029c0.162-0.299,0.398-0.529,0.71-0.689
		c0.238-0.123,0.533-0.185,0.887-0.185c0.459,0,0.818,0.097,1.077,0.29c0.259,0.192,0.425,0.459,0.5,0.8l-0.743,0.139
		c-0.052-0.183-0.15-0.326-0.294-0.431c-0.144-0.105-0.324-0.158-0.539-0.158c-0.327,0-0.587,0.104-0.78,0.31
		c-0.192,0.208-0.289,0.515-0.289,0.922c0,0.44,0.097,0.77,0.293,0.989c0.195,0.22,0.451,0.33,0.768,0.33
		c0.156,0,0.313-0.031,0.471-0.093c0.158-0.061,0.292-0.136,0.405-0.225v-0.469H20.293z"/>
	<path fill="#FFFFFF" d="M22.594,39.229v-3.704h2.747v0.626h-1.998v0.821h1.859v0.624h-1.859v1.009h2.068v0.623H22.594z"/>
	<path fill="#FFFFFF" d="M27.483,39.229v-3.704h1.2c0.455,0,0.751,0.019,0.889,0.056c0.213,0.056,0.39,0.177,0.533,0.363
		c0.144,0.186,0.216,0.426,0.216,0.721c0,0.228-0.042,0.418-0.125,0.574c-0.083,0.154-0.188,0.277-0.315,0.365
		c-0.127,0.089-0.256,0.147-0.387,0.175c-0.179,0.036-0.438,0.053-0.776,0.053H28.23v1.397H27.483z M28.23,36.152v1.051h0.409
		c0.295,0,0.491-0.019,0.591-0.058c0.099-0.039,0.178-0.099,0.233-0.182c0.057-0.083,0.085-0.178,0.085-0.288
		c0-0.135-0.04-0.246-0.12-0.333c-0.079-0.088-0.178-0.143-0.301-0.165c-0.088-0.017-0.268-0.025-0.538-0.025H28.23z"/>
	<path fill="#FFFFFF" d="M30.954,39.229v-3.673h0.748v3.05h1.859v0.623H30.954z"/>
	<path fill="#FFFFFF" d="M37.433,39.229h-0.813l-0.322-0.842h-1.48l-0.306,0.842h-0.792l1.441-3.704h0.791L37.433,39.229z
		 M36.057,37.765l-0.51-1.375l-0.5,1.375H36.057z"/>
	<path fill="#FFFFFF" d="M40.199,37.868l0.726,0.23c-0.111,0.405-0.296,0.705-0.555,0.901c-0.259,0.195-0.586,0.294-0.983,0.294
		c-0.492,0-0.896-0.168-1.213-0.504c-0.317-0.337-0.476-0.795-0.476-1.378c0-0.616,0.159-1.095,0.478-1.436
		c0.318-0.34,0.736-0.512,1.255-0.512c0.454,0,0.821,0.134,1.104,0.402c0.168,0.158,0.296,0.386,0.379,0.682l-0.739,0.177
		c-0.045-0.192-0.137-0.344-0.274-0.455c-0.139-0.111-0.309-0.166-0.506-0.166c-0.276,0-0.499,0.099-0.669,0.295
		c-0.172,0.198-0.258,0.516-0.258,0.958c0,0.468,0.085,0.801,0.254,1c0.169,0.198,0.388,0.299,0.657,0.299
		c0.198,0,0.368-0.064,0.512-0.191C40.034,38.337,40.137,38.139,40.199,37.868z"/>
	<path fill="#FFFFFF" d="M41.566,39.229v-3.704h2.746v0.626h-1.999v0.821h1.859v0.624h-1.859v1.009h2.068v0.623H41.566z"/>
	<path fill="#FFFFFF" d="M45.02,39.229v-3.704h0.748v1.458h1.465v-1.458h0.747v3.704h-0.747V37.61h-1.465v1.619H45.02z"/>
	<path fill="#FFFFFF" d="M48.601,37.401c0-0.377,0.058-0.694,0.171-0.95c0.082-0.189,0.198-0.359,0.344-0.508
		c0.146-0.15,0.305-0.261,0.479-0.333c0.23-0.098,0.497-0.146,0.799-0.146c0.545,0,0.981,0.169,1.31,0.508
		c0.327,0.339,0.491,0.81,0.491,1.413c0,0.596-0.162,1.065-0.487,1.402c-0.326,0.338-0.76,0.507-1.304,0.507
		c-0.55,0-0.989-0.168-1.313-0.504C48.764,38.452,48.601,37.99,48.601,37.401z M49.372,37.376c0,0.418,0.097,0.736,0.291,0.953
		c0.192,0.216,0.438,0.325,0.736,0.325s0.543-0.108,0.734-0.323c0.19-0.214,0.287-0.537,0.287-0.965
		c0-0.425-0.093-0.742-0.279-0.951c-0.187-0.208-0.433-0.312-0.742-0.312c-0.309,0-0.556,0.105-0.744,0.316
		C49.466,36.631,49.372,36.949,49.372,37.376z"/>
	<path fill="#FFFFFF" d="M52.797,39.229v-3.673h0.748v3.05h1.859v0.623H52.797z"/>
	<path fill="#FFFFFF" d="M55.934,35.526h1.367c0.309,0,0.544,0.023,0.705,0.071c0.218,0.063,0.404,0.177,0.559,0.341
		c0.155,0.163,0.273,0.363,0.354,0.6c0.082,0.236,0.12,0.528,0.12,0.876c0,0.305-0.036,0.566-0.112,0.788
		c-0.093,0.271-0.225,0.487-0.397,0.654c-0.129,0.126-0.305,0.226-0.524,0.295c-0.165,0.053-0.386,0.079-0.662,0.079h-1.408V35.526z
		 M56.682,36.152v2.454h0.56c0.208,0,0.359-0.013,0.452-0.036c0.121-0.03,0.222-0.083,0.303-0.153
		c0.078-0.073,0.144-0.192,0.194-0.358c0.05-0.166,0.076-0.392,0.076-0.679c0-0.286-0.026-0.505-0.076-0.659
		c-0.051-0.153-0.121-0.272-0.212-0.358s-0.206-0.144-0.347-0.174c-0.104-0.024-0.309-0.036-0.613-0.036H56.682z"/>
	<path fill="#FFFFFF" d="M59.673,39.229v-3.704h2.746v0.626h-1.998v0.821h1.859v0.624h-1.859v1.009h2.069v0.623H59.673z"/>
	<path fill="#FFFFFF" d="M63.127,39.229v-3.704H64.7c0.396,0,0.684,0.034,0.863,0.101c0.18,0.066,0.322,0.185,0.43,0.354
		c0.108,0.17,0.162,0.364,0.162,0.583c0,0.278-0.081,0.507-0.245,0.688c-0.163,0.181-0.407,0.294-0.731,0.342
		c0.161,0.094,0.294,0.198,0.4,0.311c0.104,0.114,0.246,0.313,0.425,0.602l0.452,0.722h-0.894l-0.541-0.806
		c-0.192-0.288-0.323-0.469-0.395-0.544c-0.07-0.075-0.145-0.126-0.226-0.155c-0.078-0.028-0.203-0.042-0.376-0.042h-0.151v1.546
		H63.127z M63.874,37.092h0.554c0.359,0,0.582-0.014,0.673-0.045c0.088-0.031,0.158-0.083,0.208-0.157
		c0.052-0.074,0.076-0.167,0.076-0.277c0-0.125-0.033-0.225-0.1-0.302c-0.066-0.078-0.16-0.126-0.282-0.146
		c-0.061-0.008-0.242-0.013-0.546-0.013h-0.583V37.092z"/>
</g>
</svg>
